<svg width="30" height="38" viewBox="0 1.22 28.669 28.208" fill="none" xmlns="http://www.w3.org/2000/svg"><path d="M10.41 5.757c-.048-2.469 1.8-4.5 4.128-4.537 2.327-.037 4.253 1.934 4.3 4.403.049 2.468-1.8 4.5-4.127 4.537s-4.253-1.935-4.3-4.403m9.828 4.9c-.048-2.468 1.8-4.5 4.128-4.536 2.327-.037 4.253 1.934 4.3 4.402.049 2.469-1.8 4.5-4.127 4.537s-4.253-1.934-4.301-4.403M4.129 6.283C1.8 6.32-.048 8.352 0 10.82s1.974 4.44 4.301 4.403 4.176-2.068 4.128-4.537-1.974-4.44-4.301-4.403" fill="#FFFFFF"/><path fillRule="evenodd" clipRule="evenodd" d="M24.851 26.943c.785-.954 1.208-2.091 1.212-3.258l.002-.063c-.03-3.654-3.112-6.418-5.77-8.151a29.3 29.3 0 0 0-5.43-2.748l-.03-.01-.008-.005h-.004a1.68 1.68 0 0 0-1.157.01h-.004l-.008.004-.027.01q-.037.013-.098.038a29.4 29.4 0 0 0-5.209 2.743c-2.6 1.74-5.617 4.492-5.711 8.073-.047 1.19.344 2.362 1.118 3.348.773.987 1.89 1.738 3.192 2.148a7.63 7.63 0 0 0 4.058.133c1.336-.323 2.521-1 3.386-1.932.861.9 2.026 1.55 3.335 1.859 1.31.31 2.7.265 3.98-.129s2.388-1.117 3.173-2.07M9.442 18.776a2.38 2.38 0 0 0-.533 1.519v.03c.044 1.692 1.496 2.947 2.741 3.727a13.6 13.6 0 0 0 2.54 1.228l.014.004.004.003h.002a.78.78 0 0 0 .536-.015h.002l.003-.002.013-.005.045-.018c.849-.363 1.65-.804 2.39-1.315 1.19-.828 2.564-2.128 2.577-3.788a2.36 2.36 0 0 0-.546-1.542 3 3 0 0 0-1.498-.969 3.54 3.54 0 0 0-1.88-.027 3.13 3.13 0 0 0-1.553.924 3.14 3.14 0 0 0-1.561-.834 3.54 3.54 0 0 0-1.843.094 3.06 3.06 0 0 0-1.453.986" fill="#FFFFFF"/></svg>