<svg width="223" height="105" viewBox="0 0 223 105" fill="none" xmlns="http://www.w3.org/2000/svg"><path d="M80.376 13.704q3.808 0 6.208 1.44 2.432 1.408 3.584 4.032 1.185 2.592 1.184 6.176 0 6.016-2.592 8.832T80.824 37h-1.408q-1.568 0-2.912-.32a5.85 5.85 0 0 1-2.368-1.152q-1.024-.864-1.6-2.4t-.576-3.968q0-2.273.608-3.936.64-1.665 1.504-2.656t1.568-1.216l-.16-.608h-.544q-1.472 0-2.336-.928-.833-.96-.864-2.56t.832-2.56q.896-.992 2.368-.992zm-2.304 15.04q0 .672.288.928.32.256.928.256h1.728q1.632 0 2.528-.704a3.67 3.67 0 0 0 1.248-1.792 7.3 7.3 0 0 0 .384-2.368 7.5 7.5 0 0 0-.384-2.4 3.83 3.83 0 0 0-1.248-1.888q-.896-.735-2.528-.736h-1.728q-.608 0-.928.288-.288.255-.288.96zm23.012 8.32q-3.743 0-5.984-2.208-2.208-2.24-2.208-6.304 0-2.496 1.024-4.384a7.4 7.4 0 0 1 2.848-2.944q1.857-1.088 4.32-1.088 2.752 0 4.576 1.088a6.6 6.6 0 0 1 2.72 2.944q.928 1.888.928 4.384 0 4.064-2.048 6.304-2.015 2.208-6.176 2.208M96.7 28.008q0 .991.992 1.408.993.384 3.392.384t3.392-.384q.992-.416.992-1.408 0-.96-.992-1.344t-3.392-.384-3.392.384-.992 1.344m21.62 15.584q-1.952 0-3.328-.416a9.5 9.5 0 0 1-2.592-1.28q-1.087-.768-1.536-2.144-.448-1.376.448-2.784.576-.864 1.28-1.184.736-.32 1.408-.256.704.032 1.216.288 1.12.545 1.728.8.64.224 1.44.224 1.184 0 1.984-.832.832-.832.832-2.336V31.08h-.576q-.224 1.696-1.312 2.688-1.056.96-2.912.96-1.408 0-2.752-.704t-2.208-2.24-.864-4.064q0-3.712 1.632-5.536t4.224-1.824q1.792 0 3.072 1.216 1.28 1.185 1.28 3.328l.096-.032V23.08q0-1.12.704-1.952.736-.864 2.272-.864 1.632 0 2.336.864a2.85 2.85 0 0 1 .736 1.952l.032 10.08q.032 3.329-.832 5.664-.832 2.335-2.752 3.552-1.888 1.215-5.056 1.216m-2.368-16.416q0 1.728 2.304 1.728 1.505 0 2.112-.416t.608-1.312q0-.928-.64-1.28-.607-.352-2.112-.352-1.088 0-1.696.352-.576.352-.576 1.28m20.087 16.416q-1.953 0-3.328-.416a9.5 9.5 0 0 1-2.592-1.28q-1.089-.768-1.536-2.144-.449-1.376.448-2.784.575-.864 1.28-1.184.736-.32 1.408-.256.703.032 1.216.288 1.119.545 1.728.8.639.224 1.44.224 1.183 0 1.984-.832.832-.832.832-2.336V31.08h-.576q-.225 1.696-1.312 2.688-1.056.96-2.912.96-1.408 0-2.752-.704t-2.208-2.24-.864-4.064q0-3.712 1.632-5.536t4.224-1.824q1.791 0 3.072 1.216 1.28 1.185 1.28 3.328l.096-.032V23.08q0-1.12.704-1.952.736-.864 2.272-.864 1.631 0 2.336.864.736.832.736 1.952l.032 10.08q.032 3.329-.832 5.664-.832 2.335-2.752 3.552-1.888 1.215-5.056 1.216m-2.368-16.416q0 1.728 2.304 1.728 1.503 0 2.112-.416.608-.416.608-1.312 0-.928-.64-1.28-.609-.352-2.112-.352-1.089 0-1.696.352-.576.352-.576 1.28m12.503-10.624q0-1.376.832-2.208.864-.864 2.368-.864 1.6 0 2.368.832.8.832.8 2.208 0 1.344-.8 2.176-.768.8-2.368.8-1.569 0-2.4-.8-.8-.833-.8-2.144m3.2 20.448q-1.505 0-2.24-.832t-.736-2.08V23.144q0-1.376.736-2.176.735-.8 2.24-.8 1.503 0 2.24.8.768.8.768 2.112v11.008q0 1.248-.8 2.08-.768.832-2.208.832m4.643-8.32q0-2.528.992-4.448a7.5 7.5 0 0 1 2.88-3.008q1.888-1.088 4.48-1.088 2.017 0 3.616.736 1.632.736 2.56 1.984.928 1.216.928 2.688 0 1.537-.896 2.176-.895.64-2.656.64h-6.72q0 .832.64 1.376.672.544 2.24.544.8 0 1.472-.16.705-.16 1.408-.288a7.7 7.7 0 0 1 1.632-.16q1.281 0 2.112.928.832.896.832 2.496 0 1.888-1.952 2.944-1.92 1.056-5.056 1.056-2.208 0-4.16-.864-1.92-.864-3.136-2.72-1.216-1.889-1.216-4.832m10.368-1.376q.48 0 .32-.448-.128-.448-.768-.928t-1.856-.48q-1.407 0-2.112.608-.672.608-.672 1.248zM81.88 83.096q-1.792 0-3.616-.352a16 16 0 0 1-3.328-1.088q-1.504-.735-2.432-1.76-.928-1.056-.928-2.432 0-1.76 1.12-2.816t2.624-.992q1.185.032 2.368.512 1.185.448 2.4.896a7.3 7.3 0 0 0 2.496.448q1.248 0 1.728-.32t.48-.864q0-.64-.672-1.056-.672-.415-1.696-.64l-1.568-.384q-2.432-.576-4.352-1.28-1.92-.735-3.04-1.92-1.088-1.216-1.088-3.232 0-2.208 1.216-3.584 1.216-1.408 3.296-2.048t4.64-.64q2.624 0 4.608.544t3.072 1.568q1.12 1.024 1.12 2.496 0 1.568-.864 2.464-.832.864-2.24.864-.929 0-1.952-.32a37 37 0 0 0-2.112-.608 8.2 8.2 0 0 0-2.336-.32q-1.12 0-1.696.352-.576.32-.576.864 0 .672.768.992t2.528.768l1.792.416q2.208.544 3.872 1.312t2.592 2.016.928 3.264q0 2.432-1.152 3.968-1.152 1.505-3.2 2.208t-4.8.704M103.598 83q-1.76 0-2.944-1.088-1.151-1.088-1.472-2.816h-.576v7.36q0 1.312-.736 2.208-.735.928-2.24.928-1.44 0-2.24-.928-.768-.896-.768-2.272V74.424q0-1.6-.128-2.688a96 96 0 0 0-.192-2.016q-.128-1.344.544-2.272.672-.96 2.176-1.152 1.953-.256 2.752.704.832.929.832 2.912v1.536l.128.032a7.8 7.8 0 0 1 .736-2.432q.609-1.216 1.696-1.984 1.089-.8 2.752-.8 2.784 0 4.128 2.24 1.377 2.208 1.376 5.92 0 8.576-5.824 8.576m-5.12-8.64q0 .512.128.8.192.608.8.896.64.255 1.888.256 1.6 0 2.176-.48.609-.48.608-1.472 0-1.024-.576-1.472-.576-.48-2.176-.48-1.28 0-1.92.288-.608.256-.8.864-.128.288-.128.8m20.294 8.704q-3.744 0-5.984-2.208-2.208-2.24-2.208-6.304 0-2.496 1.024-4.384a7.4 7.4 0 0 1 2.848-2.944q1.856-1.088 4.32-1.088 2.752 0 4.576 1.088a6.6 6.6 0 0 1 2.72 2.944q.928 1.888.928 4.384 0 4.064-2.048 6.304-2.016 2.208-6.176 2.208m-4.384-9.056q0 .991.992 1.408.992.384 3.392.384t3.392-.384q.992-.416.992-1.408 0-.96-.992-1.344-.993-.384-3.392-.384t-3.392.384-.992 1.344m21.85 9.088q-1.696 0-3.072-.768a5.46 5.46 0 0 1-2.112-2.176q-.768-1.44-.768-3.36V71.16l-1.184.16q-.96.127-1.696-.672-.736-.8-.736-2.016t.736-1.984q.736-.8 1.696-.672l1.184.16-.032-2.176q-.032-1.28.736-2.016.767-.768 2.24-.768 1.471 0 2.272.768.8.736.736 2.016l-.064 2.176 1.696-.224q1.728-.255 2.624.64.896.864.896 2.08t-.896 2.112q-.864.864-2.528.64l-1.792-.224v4.768q0 .416.288.768a.63.63 0 0 0 .704.192q.48-.128.992-.544.543-.416 1.376-.416 1.248 0 1.92.896.672.895.672 2.208 0 1.024-.736 1.984-.705.928-2.016 1.504-1.312.576-3.136.576m15.781 0q-1.697 0-3.072-.768a5.46 5.46 0 0 1-2.112-2.176q-.768-1.44-.768-3.36V71.16l-1.184.16q-.96.127-1.696-.672-.736-.8-.736-2.016t.736-1.984q.736-.8 1.696-.672l1.184.16-.032-2.176q-.032-1.28.736-2.016.768-.768 2.24-.768t2.272.768q.8.736.736 2.016l-.064 2.176 1.696-.224q1.728-.255 2.624.64.896.864.896 2.08t-.896 2.112q-.864.864-2.528.64l-1.792-.224v4.768q0 .416.288.768a.63.63 0 0 0 .704.192q.48-.128.992-.544.544-.416 1.376-.416 1.248 0 1.92.896.672.895.672 2.208 0 1.024-.736 1.984-.703.928-2.016 1.504-1.312.576-3.136.576m6.467-8.416q0-2.528.992-4.448a7.5 7.5 0 0 1 2.88-3.008q1.888-1.088 4.48-1.088 2.016 0 3.616.736 1.632.736 2.56 1.984.928 1.216.928 2.688 0 1.537-.896 2.176t-2.656.64h-6.72q0 .832.64 1.376.672.544 2.24.544.8 0 1.472-.16.704-.16 1.408-.288a7.7 7.7 0 0 1 1.632-.16q1.28 0 2.112.928.832.896.832 2.496 0 1.888-1.952 2.944-1.92 1.056-5.056 1.056-2.208 0-4.16-.864-1.92-.864-3.136-2.72-1.216-1.889-1.216-4.832m10.368-1.376q.48 0 .32-.448-.128-.448-.768-.928t-1.856-.48q-1.409 0-2.112.608-.672.608-.672 1.248zm12.3 9.696q-5.824 0-5.824-8.576 0-3.712 1.44-5.92 1.44-2.24 4.32-2.24 1.568 0 2.528.64a4.26 4.26 0 0 1 1.536 1.76q.576 1.088.832 2.528l.096-.032v-9.696q0-1.312.768-2.208.8-.928 2.304-.928 1.471 0 2.176.928.735.896.736 2.272v14.4q0 1.088.16 2.016.192.896.288 1.792.096 1.216-.512 2.112-.577.864-2.08 1.12-1.952.32-2.912-.672-.928-.992-.928-2.944v-1.184h-.608q0 2.336-1.184 3.584Q183.138 83 181.154 83m-.48-8.864q0 .992.608 1.472.607.48 2.176.48 1.599 0 2.208-.48.608-.48.608-1.472 0-1.024-.608-1.472-.577-.48-2.176-.48t-2.208.48q-.608.449-.608 1.472" fill="#fff"/><path fillRule="evenodd" clipRule="evenodd" d="M52.809 61.731c-.008 2.367-.864 4.676-2.45 6.612s-3.826 3.402-6.414 4.201c-2.587.8-5.395.89-8.041.262-2.646-.629-5-1.946-6.74-3.773-1.748 1.893-4.142 3.266-6.843 3.921-2.7.656-5.57.561-8.2-.27-2.631-.83-4.889-2.356-6.452-4.359-1.564-2.002-2.355-4.38-2.26-6.796.191-7.268 6.29-12.854 11.543-16.384a59.3 59.3 0 0 1 10.527-5.567q.122-.052.197-.077l.055-.02.016-.008h.008c.368-.14.765-.214 1.167-.218s.8.063 1.171.196h.008l.016.01.06.02q.465.17.92.357a59 59 0 0 1 10.057 5.22c5.37 3.519 11.598 9.128 11.658 16.544zM.139 35.62c-.096-5.01 3.638-9.133 8.342-9.208s8.595 3.926 8.692 8.936-3.638 9.133-8.341 9.208C4.128 44.63.236 40.63.139 35.62m49.241-9.538c-4.704.075-8.438 4.197-8.341 9.207.096 5.01 3.988 9.011 8.692 8.936 4.703-.075 8.438-4.197 8.341-9.208-.097-5.01-3.988-9.01-8.692-8.935" fill="#fff"/><path d="M18.14 54.85c-.016-1.096.361-2.174 1.08-3.084s1.744-1.609 2.936-2a7.1 7.1 0 0 1 3.723-.19c1.232.269 2.333.86 3.155 1.691.794-.892 1.892-1.548 3.137-1.875a7.1 7.1 0 0 1 3.802.056c1.226.363 2.285 1.05 3.026 1.965.742.915 1.128 2.01 1.104 3.13-.026 3.369-2.804 6.009-5.209 7.688a27.5 27.5 0 0 1-4.92 2.706l-.026.01-.007.004h-.004a1.56 1.56 0 0 1-1.083.03h-.004l-.007-.005-.028-.008q-.216-.075-.429-.158a27.4 27.4 0 0 1-4.704-2.334c-2.518-1.584-5.45-4.13-5.541-7.566z" fill="#9D174D"/><ellipse cx="8.518" cy="9.073" rx="8.518" ry="9.073" transform="matrix(-.99987 .01596 -.01933 -.99981 38.384 34.143)" fill="#DB2777"/></svg>